<?xml version="1.0" encoding="UTF-8" standalone="no"?>
<!DOCTYPE svg PUBLIC "-//W3C//DTD SVG 1.1//EN"
 "http://www.w3.org/Graphics/SVG/1.1/DTD/svg11.dtd">
<!-- Generated by graphviz version 2.40.1 (20161225.0304)
 -->
<!-- Title: G Pages: 1 -->
<svg width="549pt" height="650pt"
 viewBox="0.00 0.00 548.88 649.80" xmlns="http://www.w3.org/2000/svg" xmlns:xlink="http://www.w3.org/1999/xlink">
<g id="graph0" class="graph" transform="scale(1 1) rotate(0) translate(4 645.8)">
<title>G</title>
<polygon fill="#ffffff" stroke="transparent" points="-4,4 -4,-645.8 544.8786,-645.8 544.8786,4 -4,4"/>
<!-- asynchronous -->
<g id="node1" class="node">
<title>asynchronous</title>
<ellipse fill="none" stroke="#000000" cx="64.1352" cy="-623.8" rx="64.2707" ry="18"/>
<text text-anchor="middle" x="64.1352" y="-619.6" font-family="Times,serif" font-size="14.00" fill="#000000">asynchronous</text>
</g>
<!-- event loop -->
<g id="node2" class="node">
<title>event loop</title>
<ellipse fill="none" stroke="#000000" cx="293.1352" cy="-623.8" rx="51.5678" ry="18"/>
<text text-anchor="middle" x="293.1352" y="-619.6" font-family="Times,serif" font-size="14.00" fill="#000000">event loop</text>
</g>
<!-- asynchronous&#45;&gt;event loop -->
<g id="edge1" class="edge">
<title>asynchronous&#45;&gt;event loop</title>
<path fill="none" stroke="#000000" d="M128.5339,-623.8C160.7641,-623.8 199.5916,-623.8 231.4399,-623.8"/>
<polygon fill="#000000" stroke="#000000" points="231.5179,-627.3001 241.5179,-623.8 231.5179,-620.3001 231.5179,-627.3001"/>
<text text-anchor="middle" x="184.9359" y="-631" font-family="Times,serif" font-size="14.00" fill="#000000">start_managing()</text>
</g>
<!-- check status -->
<g id="node3" class="node">
<title>check status</title>
<ellipse fill="none" stroke="#000000" cx="353.1352" cy="-535" rx="57.9231" ry="18"/>
<text text-anchor="middle" x="353.1352" y="-530.8" font-family="Times,serif" font-size="14.00" fill="#000000">check status</text>
</g>
<!-- event loop&#45;&gt;check status -->
<g id="edge2" class="edge">
<title>event loop&#45;&gt;check status</title>
<path fill="none" stroke="#000000" d="M304.9893,-606.256C313.6436,-593.4476 325.5251,-575.8629 335.3194,-561.3675"/>
<polygon fill="#000000" stroke="#000000" points="338.4019,-563.0569 341.1004,-552.8115 332.6017,-559.1379 338.4019,-563.0569"/>
<text text-anchor="middle" x="355.563" y="-575.2" font-family="Times,serif" font-size="14.00" fill="#000000">manage()</text>
</g>
<!-- sleep -->
<g id="node4" class="node">
<title>sleep</title>
<ellipse fill="none" stroke="#000000" cx="313.1352" cy="-18" rx="30.7558" ry="18"/>
<text text-anchor="middle" x="313.1352" y="-13.8" font-family="Times,serif" font-size="14.00" fill="#000000">sleep</text>
</g>
<!-- check status&#45;&gt;sleep -->
<g id="edge3" class="edge">
<title>check status&#45;&gt;sleep</title>
<path fill="none" stroke="#000000" d="M339.8158,-517.341C328.1798,-500.1309 313.1352,-472.7464 313.1352,-446.2 313.1352,-446.2 313.1352,-446.2 313.1352,-106.8 313.1352,-86.5006 313.1352,-63.591 313.1352,-46.1264"/>
<polygon fill="#000000" stroke="#000000" points="316.6353,-46.0279 313.1352,-36.0279 309.6353,-46.0279 316.6353,-46.0279"/>
<text text-anchor="middle" x="341.5097" y="-264.4" font-family="Times,serif" font-size="14.00" fill="#000000">connected</text>
</g>
<!-- read config -->
<g id="node5" class="node">
<title>read config</title>
<ellipse fill="none" stroke="#000000" cx="449.1352" cy="-446.2" rx="54.9771" ry="18"/>
<text text-anchor="middle" x="449.1352" y="-442" font-family="Times,serif" font-size="14.00" fill="#000000">read config</text>
</g>
<!-- check status&#45;&gt;read config -->
<g id="edge4" class="edge">
<title>check status&#45;&gt;read config</title>
<path fill="none" stroke="#000000" d="M351.9942,-516.8417C352.2381,-505.7417 354.3436,-491.868 362.051,-482.2 370.0175,-472.2071 381.2308,-464.9607 392.9677,-459.7151"/>
<polygon fill="#000000" stroke="#000000" points="394.4577,-462.8887 402.4407,-455.9229 391.8561,-456.3901 394.4577,-462.8887"/>
<text text-anchor="middle" x="398.6773" y="-486.4" font-family="Times,serif" font-size="14.00" fill="#000000">disconnected</text>
</g>
<!-- sleep&#45;&gt;event loop -->
<g id="edge14" class="edge">
<title>sleep&#45;&gt;event loop</title>
<path fill="none" stroke="#000000" d="M298.8327,-34.0617C285.3293,-50.9309 267.1352,-78.8466 267.1352,-106.8 267.1352,-535 267.1352,-535 267.1352,-535 267.1352,-556.2169 274.056,-579.1781 280.7563,-596.436"/>
<polygon fill="#000000" stroke="#000000" points="277.5951,-597.9526 284.6218,-605.8819 284.0736,-595.3013 277.5951,-597.9526"/>
</g>
<!-- connect -->
<g id="node7" class="node">
<title>connect</title>
<ellipse fill="none" stroke="#000000" cx="450.1352" cy="-357.4" rx="41.1316" ry="18"/>
<text text-anchor="middle" x="450.1352" y="-353.2" font-family="Times,serif" font-size="14.00" fill="#000000">connect</text>
</g>
<!-- read config&#45;&gt;connect -->
<g id="edge6" class="edge">
<title>read config&#45;&gt;connect</title>
<path fill="none" stroke="#000000" d="M449.3424,-427.8006C449.4787,-415.6949 449.6599,-399.6076 449.8146,-385.8674"/>
<polygon fill="#000000" stroke="#000000" points="453.3188,-385.5108 449.9317,-375.472 446.3192,-385.4319 453.3188,-385.5108"/>
<text text-anchor="middle" x="474.5963" y="-397.6" font-family="Times,serif" font-size="14.00" fill="#000000">scan wifi</text>
</g>
<!-- synchronous -->
<g id="node6" class="node">
<title>synchronous</title>
<ellipse fill="none" stroke="#000000" cx="449.1352" cy="-623.8" rx="59.6974" ry="18"/>
<text text-anchor="middle" x="449.1352" y="-619.6" font-family="Times,serif" font-size="14.00" fill="#000000">synchronous</text>
</g>
<!-- synchronous&#45;&gt;read config -->
<g id="edge5" class="edge">
<title>synchronous&#45;&gt;read config</title>
<path fill="none" stroke="#000000" d="M449.1352,-605.7934C449.1352,-574.812 449.1352,-511.206 449.1352,-474.3346"/>
<polygon fill="#000000" stroke="#000000" points="452.6353,-474.2542 449.1352,-464.2543 445.6353,-474.2543 452.6353,-474.2542"/>
<text text-anchor="middle" x="495.0069" y="-530.8" font-family="Times,serif" font-size="14.00" fill="#000000">setup_network()</text>
</g>
<!-- do AP -->
<g id="node8" class="node">
<title>do AP</title>
<ellipse fill="none" stroke="#000000" cx="426.1352" cy="-179.8" rx="35.3947" ry="18"/>
<text text-anchor="middle" x="426.1352" y="-175.6" font-family="Times,serif" font-size="14.00" fill="#000000">do AP</text>
</g>
<!-- connect&#45;&gt;do AP -->
<g id="edge7" class="edge">
<title>connect&#45;&gt;do AP</title>
<path fill="none" stroke="#000000" d="M438.6199,-339.935C430.2302,-326.11 419.5719,-305.9686 415.0342,-286.6 408.8585,-260.2398 413.2629,-229.415 418.2305,-207.6755"/>
<polygon fill="#000000" stroke="#000000" points="421.6714,-208.34 420.6704,-197.7926 414.8755,-206.6621 421.6714,-208.34"/>
<text text-anchor="middle" x="437.6857" y="-264.4" font-family="Times,serif" font-size="14.00" fill="#000000">finished</text>
</g>
<!-- retry -->
<g id="node9" class="node">
<title>retry</title>
<ellipse fill="none" stroke="#000000" cx="498.1352" cy="-268.6" rx="29.0318" ry="18"/>
<text text-anchor="middle" x="498.1352" y="-264.4" font-family="Times,serif" font-size="14.00" fill="#000000">retry</text>
</g>
<!-- connect&#45;&gt;retry -->
<g id="edge8" class="edge">
<title>connect&#45;&gt;retry</title>
<path fill="none" stroke="#000000" d="M463.0543,-340.2662C467.1707,-334.4365 471.5761,-327.7792 475.1352,-321.4 479.617,-313.3669 483.848,-304.2885 487.4296,-295.9535"/>
<polygon fill="#000000" stroke="#000000" points="490.7038,-297.1951 491.3119,-286.6177 484.2404,-294.5072 490.7038,-297.1951"/>
<text text-anchor="middle" x="495.7334" y="-308.8" font-family="Times,serif" font-size="14.00" fill="#000000">error</text>
</g>
<!-- WebRepl -->
<g id="node10" class="node">
<title>WebRepl</title>
<ellipse fill="none" stroke="#000000" cx="426.1352" cy="-106.8" rx="47.5119" ry="18"/>
<text text-anchor="middle" x="426.1352" y="-102.6" font-family="Times,serif" font-size="14.00" fill="#000000">WebRepl</text>
</g>
<!-- do AP&#45;&gt;WebRepl -->
<g id="edge11" class="edge">
<title>do AP&#45;&gt;WebRepl</title>
<path fill="none" stroke="#000000" d="M426.1352,-161.7551C426.1352,-153.6828 426.1352,-143.9764 426.1352,-134.9817"/>
<polygon fill="#000000" stroke="#000000" points="429.6353,-134.8903 426.1352,-124.8904 422.6353,-134.8904 429.6353,-134.8903"/>
</g>
<!-- retry&#45;&gt;connect -->
<g id="edge9" class="edge">
<title>retry&#45;&gt;connect</title>
<path fill="none" stroke="#000000" d="M474.2012,-279.0975C463.8638,-284.9858 452.8273,-293.425 447.03,-304.6 443.1649,-312.0505 442.4558,-320.9119 443.1417,-329.2268"/>
<polygon fill="#000000" stroke="#000000" points="439.708,-329.9343 444.6241,-339.3195 446.6337,-328.917 439.708,-329.9343"/>
<text text-anchor="middle" x="459.1878" y="-308.8" font-family="Times,serif" font-size="14.00" fill="#000000">next</text>
</g>
<!-- retry&#45;&gt;do AP -->
<g id="edge10" class="edge">
<title>retry&#45;&gt;do AP</title>
<path fill="none" stroke="#000000" d="M484.9293,-252.3127C474.1051,-238.9628 458.6104,-219.8527 446.2449,-204.6019"/>
<polygon fill="#000000" stroke="#000000" points="448.7633,-202.1507 439.7466,-196.5874 443.326,-206.5593 448.7633,-202.1507"/>
<text text-anchor="middle" x="484.0707" y="-220" font-family="Times,serif" font-size="14.00" fill="#000000">failed</text>
</g>
<!-- WebRepl&#45;&gt;sleep -->
<g id="edge12" class="edge">
<title>WebRepl&#45;&gt;sleep</title>
<path fill="none" stroke="#000000" d="M392.7522,-93.88C379.9154,-87.9801 365.6067,-80.1934 354.1562,-70.8 344.8115,-63.134 336.2821,-52.9691 329.4508,-43.6063"/>
<polygon fill="#000000" stroke="#000000" points="332.2698,-41.5299 323.6798,-35.328 326.5274,-45.533 332.2698,-41.5299"/>
<text text-anchor="middle" x="393.6247" y="-58.2" font-family="Times,serif" font-size="14.00" fill="#000000">asynchronous</text>
</g>
<!-- return -->
<g id="node11" class="node">
<title>return</title>
<ellipse fill="none" stroke="#000000" cx="446.1352" cy="-18" rx="34.1871" ry="18"/>
<text text-anchor="middle" x="446.1352" y="-13.8" font-family="Times,serif" font-size="14.00" fill="#000000">return</text>
</g>
<!-- WebRepl&#45;&gt;return -->
<g id="edge13" class="edge">
<title>WebRepl&#45;&gt;return</title>
<path fill="none" stroke="#000000" d="M430.1825,-88.83C432.9476,-76.553 436.6674,-60.0372 439.8194,-46.0421"/>
<polygon fill="#000000" stroke="#000000" points="443.3111,-46.468 442.0939,-35.9433 436.4822,-44.9299 443.3111,-46.468"/>
<text text-anchor="middle" x="473.5174" y="-58.2" font-family="Times,serif" font-size="14.00" fill="#000000">synchronous</text>
</g>
</g>
</svg>
